# xmcd
#
# Track frame offsets: 
#        150
#        23014
#        41632
#        63442
#        82825
#        100332
#        121708
#        142846
#        166099
#        189291
#        212207
#        234953
#        254863
#        279084
#        298525
#        315602
#
# Disc length: 4451 seconds
#
# Revision: 2
# Processed by: cddbd v1.5.2PL0 Copyright (c) Steve Scherf et al.
# Submitted via: ExactAudioCopy v1.3
#
DISCID=d1116110
DTITLE=CDS制作 - TEST-CD-05A【试音极品碟】
DYEAR=2011
DGENRE=stereo
TTITLE0=往事如昔
TTITLE1=某夜
TTITLE2=套马杆
TTITLE3=说句心里话
TTITLE4=心恋
TTITLE5=渔水情歌
TTITLE6=沉浮
TTITLE7=为爱疯狂
TTITLE8=黄昏
TTITLE9=红红娘姑娘
TTITLE10=美人吟
TTITLE11=望春风
TTITLE12=默默祝福你
TTITLE13=糊涂的爱
TTITLE14=借我一点爱
TTITLE15=三年
EXTD=
EXTT0=
EXTT1=
EXTT2=
EXTT3=
EXTT4=
EXTT5=
EXTT6=
EXTT7=
EXTT8=
EXTT9=
EXTT10=
EXTT11=
EXTT12=
EXTT13=
EXTT14=
EXTT15=
PLAYORDER=
